<svg xmlns="http://www.w3.org/2000/svg" viewBox="0 0 70 70"><defs><style>.cls-1,.cls-2,.cls-3,.cls-4{fill:none;stroke:#fff;stroke-miterlimit:10;}.cls-1{stroke-width:0.75px;}.cls-2{stroke-width:0.23px;opacity:0.5;}.cls-3{stroke-width:0.17px;opacity:0.2;}.cls-4{stroke-width:0.23px;}</style></defs><title>MENU_layers line</title><g id="_3_BUTTONS" data-name="3_BUTTONS"><rect class="cls-1" x="16.34" y="16.34" width="37.31" height="37.31"/><line class="cls-2" x1="31.87" y1="35" x2="27.34" y2="37.65"/><polyline class="cls-3" points="38.14 35 34.96 33.19 31.87 35"/><line class="cls-2" x1="42.58" y1="37.53" x2="38.14" y2="35"/><polyline class="cls-4" points="27.34 37.65 22.82 40.3 35.04 47.26 47.18 40.16 46.84 39.96 42.58 37.53"/><polyline class="cls-2" points="42.66 32.35 34.96 27.97 27.34 32.42"/><polyline class="cls-4" points="27.34 32.42 22.82 35.07 35.04 42.03 47.18 34.93 46.84 34.73 42.66 32.35"/><polygon class="cls-4" points="46.84 29.51 34.96 22.74 22.82 29.84 35.04 36.81 47.18 29.7 46.84 29.51"/></g></svg>